<svg xmlns="http://www.w3.org/2000/svg" viewBox="0 0 1200 630" width="1200" height="630" role="img" aria-label="Social card template">
  <!-- Starter Open Graph card (1200x630). The social-card build step overlays the
       real per-page title and description; the sample text here is for preview. -->
  <defs>
    <linearGradient id="bg" x1="0" y1="0" x2="1" y2="1">
      <stop offset="0" stop-color="#0E0E18"/>
      <stop offset="1" stop-color="#191934"/>
    </linearGradient>
    <linearGradient id="brand" x1="0" y1="0" x2="1" y2="1">
      <stop offset="0" stop-color="#8E9BFF"/>
      <stop offset=".55" stop-color="#5C6EF0"/>
      <stop offset="1" stop-color="#7C5CE0"/>
    </linearGradient>
  </defs>
  <rect width="1200" height="630" fill="url(#bg)"/>
  <rect x="0" y="0" width="12" height="630" fill="url(#brand)"/>

  <!-- faint watermark mark, right side -->
  <g transform="translate(820,150)" opacity="0.15">
    <g fill="none" stroke="url(#brand)" stroke-width="9" stroke-linejoin="round" stroke-linecap="round">
      <path d="M150 0 L270 70 L270 210 L150 280 L30 210 L30 70 Z"/>
      <line x1="150" y1="92" x2="86" y2="196"/>
      <line x1="150" y1="92" x2="214" y2="196"/>
    </g>
    <g fill="url(#brand)">
      <circle cx="150" cy="88" r="22"/>
      <circle cx="80" cy="200" r="22"/>
      <circle cx="220" cy="200" r="22"/>
    </g>
  </g>

  <!-- header: small mark + kicker -->
  <g transform="translate(80,84)">
    <g fill="none" stroke="url(#brand)" stroke-width="3.4" stroke-linejoin="round" stroke-linecap="round">
      <path d="M26 0 L46 12 L46 36 L26 48 L6 36 L6 12 Z"/>
      <line x1="26" y1="17" x2="15.5" y2="35"/>
      <line x1="26" y1="17" x2="36.5" y2="35"/>
    </g>
    <g fill="url(#brand)">
      <circle cx="26" cy="16" r="4.6"/>
      <circle cx="15" cy="36" r="4.6"/>
      <circle cx="37" cy="36" r="4.6"/>
    </g>
    <text x="68" y="32" fill="#AEB4D6" font-family="Inter, system-ui, sans-serif" font-size="26" font-weight="600" letter-spacing="2">ETHEREUM PROTOCOL FELLOWSHIP</text>
  </g>

  <!-- title + subtitle (replaced per page by the build step) -->
  <text x="80" y="332" fill="#F2F3FB" font-family="Inter, system-ui, sans-serif" font-size="76" font-weight="800">Dev Update, Week 0</text>
  <text x="80" y="410" fill="#9AA0C6" font-family="Inter, system-ui, sans-serif" font-size="34" font-weight="500">Formal verification of Ethereum SSZ in Lean 4</text>

  <!-- footer -->
  <rect x="80" y="520" width="70" height="6" rx="3" fill="url(#brand)"/>
  <text x="80" y="566" fill="#AEB4D6" font-family="Inter, system-ui, sans-serif" font-size="28" font-weight="600">ivananishchuk.github.io/eth-protocol-fellowship</text>
</svg>
